<?xml version="1.0" encoding="UTF-8"?>
<svg width="752pt" height="752pt" version="1.1" viewBox="0 0 752 752" xmlns="http://www.w3.org/2000/svg">
 <g>
  <path d="m301.59 149.91c-40.406-0.59375-79.332 15.191-107.91 43.766-28.039 28.039-43.793 66.066-43.793 105.71 0 39.652 15.754 77.68 43.793 105.72 28.035 28.039 66.066 43.789 105.71 43.789 39.652 0 77.68-15.75 105.72-43.789 28.039-28.039 43.789-66.066 43.789-105.72 0-39.648-15.75-77.676-43.789-105.71-27.5-27.496-64.637-43.195-103.52-43.766zm-0.32813 22.391c33.066 0.48438 64.641 13.832 88.023 37.215 23.84 23.84 37.234 56.172 37.234 89.883 0 33.715-13.395 66.047-37.234 89.883-23.836 23.84-56.168 37.234-89.883 37.234-33.711 0-66.043-13.395-89.883-37.234-23.84-23.836-37.23-56.168-37.23-89.883 0-33.711 13.391-66.043 37.23-89.883 24.297-24.293 57.391-37.715 91.742-37.215z"/>
  <path d="m391.9 391.9c6.6133-6.6133 18.59-5.3633 23.953 0l108.2 108.2c6.6133 6.6133 6.6133 17.336 0 23.953-6.6133 6.6133-18.59 5.3633-23.953 0l-108.2-108.2c-6.6133-6.6133-6.6133-17.336 0-23.953z"/>
  <path d="m441.04 471.6 30.559-30.559c6.6133-6.6133 18.59-5.3633 23.953 0l101.59 101.59c6.6133 6.6133 6.6133 17.336 0 23.953l-30.559 30.559c-6.6133 6.6133-18.59 5.3633-23.953 0l-101.59-101.59c-6.6133-6.6133-6.6133-17.336 0-23.953z"/>
  <path d="m341.69 341.7c4.3945-4.3945 3.5625-12.348 0-15.906l-68.691-68.691c-4.3945-4.3945-11.516-4.3945-15.906 0-4.3945 4.3945-3.5625 12.348 0 15.906l68.691 68.691c4.3945 4.3945 11.516 4.3945 15.906 0z"/>
  <path d="m257.09 341.7c4.3945 4.3945 12.348 3.5625 15.906 0l68.691-68.691c4.3945-4.3945 4.3945-11.516 0-15.906-4.3945-4.3945-12.348-3.5625-15.906 0l-68.691 68.691c-4.3945 4.3945-4.3945 11.516 0 15.906z"/>
 </g>
</svg>
